G04 ================== begin FILE IDENTIFICATION RECORD ==================*
G04 Layout Name:  C:/Projects/Board1-ili9481/board_v4.brd*
G04 Film Name:    BOTTOM*
G04 File Format:  Gerber RS274X*
G04 File Origin:  Cadence Allegro 17.2-P019*
G04 Origin Date:  Thu Oct 18 14:56:56 2018*
G04 *
G04 Layer:  ETCH/BOTTOM*
G04 Layer:  PIN/BOTTOM*
G04 Layer:  VIA CLASS/BOTTOM*
G04 *
G04 Offset:    (0.000 0.000)*
G04 Mirror:    No*
G04 Mode:      Positive*
G04 Rotation:  0*
G04 FullContactRelief:  No*
G04 UndefLineWidth:     2.000*
G04 ================== end FILE IDENTIFICATION RECORD ====================*
%FSLAX25Y25*MOMM*%
%IR0*IPPOS*OFA0.00000B0.00000*MIA0B0*SFA1.00000B1.00000*%
%ADD10C,1.524*%
%ADD16C,1.651*%
%ADD13C,1.473*%
%ADD15R,1.524X1.524*%
%ADD11C,1.397*%
%ADD14R,1.473X1.473*%
%ADD12R,1.397X1.397*%
%ADD17C,.254*%
G75*
%LPD*%
G75*
G54D10*
X1016000Y5080000D03*
Y5588000D03*
Y6096000D03*
X2032000Y3556000D03*
Y3302000D03*
Y4318000D03*
Y4064000D03*
Y3810000D03*
Y5080000D03*
Y5842000D03*
Y5588000D03*
Y5334000D03*
Y6096000D03*
X2794000Y4826000D03*
X2540000Y8382000D03*
X2286000D03*
Y9144000D03*
X3302000Y4826000D03*
Y8382000D03*
X3937000Y1651000D03*
X4953000D03*
X4699000D03*
X4953000Y2413000D03*
X6858000Y3302000D03*
Y3556000D03*
Y4318000D03*
Y4064000D03*
Y3810000D03*
Y4826000D03*
Y4572000D03*
Y5588000D03*
Y5842000D03*
Y6604000D03*
Y6350000D03*
Y6096000D03*
Y7112000D03*
Y6858000D03*
G54D11*
X1016000Y7366000D03*
Y7112000D03*
Y6858000D03*
X7874000Y8128000D03*
Y7874000D03*
Y7620000D03*
Y8382000D03*
G54D12*
X1016000Y7620000D03*
X7874000Y8636000D03*
G54D13*
X1016000Y8255000D03*
X1524000D03*
Y8763000D03*
X3810000Y3556000D03*
Y3302000D03*
Y3048000D03*
Y4318000D03*
Y4064000D03*
Y3810000D03*
Y5080000D03*
Y4826000D03*
Y4572000D03*
Y5842000D03*
Y5588000D03*
Y5334000D03*
Y6604000D03*
Y6350000D03*
Y6096000D03*
Y7366000D03*
Y7112000D03*
Y6858000D03*
Y7620000D03*
X5334000Y3048000D03*
Y3302000D03*
Y3556000D03*
Y3810000D03*
Y4064000D03*
Y4318000D03*
Y4572000D03*
Y4826000D03*
Y5080000D03*
Y5334000D03*
Y5588000D03*
Y5842000D03*
Y6096000D03*
Y6350000D03*
Y6604000D03*
Y6858000D03*
Y7112000D03*
Y7366000D03*
Y7620000D03*
Y7874000D03*
X7874000Y1270000D03*
X8382000D03*
Y1778000D03*
G54D14*
X1016000Y8763000D03*
X3810000Y7874000D03*
X7874000Y1778000D03*
G54D15*
X2032000Y3048000D03*
Y4826000D03*
X6858000Y3048000D03*
Y5334000D03*
G54D16*
X2032000Y7874000D03*
Y8382000D03*
X2794000Y5334000D03*
Y5842000D03*
X3302000Y5334000D03*
Y5842000D03*
X5207000Y1143000D03*
Y1651000D03*
G54D17*
G01X1016000Y5080000D02*
X2032000D01*
G01X1016000Y8763000D02*
X635000Y8382000D01*
Y5461000D01*
X1016000Y5080000D01*
G01Y5588000D02*
X2032000D01*
G01X762000Y7112000D02*
Y5842000D01*
X1016000Y5588000D01*
G01X2032000Y5842000D02*
X1778000Y6096000D01*
X1016000D01*
G01Y7112000D02*
X3810000D01*
G01X1016000Y7366000D02*
X762000Y7112000D01*
G01X2286000Y9144000D02*
X1930400D01*
X1905000Y9118600D01*
Y8890000D01*
X762000Y7747000D01*
Y7112000D01*
G01X1016000Y6858000D02*
X3810000D01*
G01X1016000Y7620000D02*
X3810000D01*
G01Y3302000D02*
X2540000D01*
X2286000Y3556000D01*
X2032000D01*
G01X3810000Y3048000D02*
X2540000D01*
X2286000Y3302000D01*
X2032000D01*
G01Y4318000D02*
X3810000D01*
G01X2032000Y3810000D02*
X3810000D01*
G01Y4064000D02*
X2032000D01*
G01X2794000Y5842000D02*
X2032000Y5080000D01*
G01X3810000Y5334000D02*
X3556000Y5588000D01*
Y5969000D01*
X3429000Y6096000D01*
X2540000D01*
X2413000Y5969000D01*
Y5715000D01*
X2286000Y5588000D01*
X2032000D01*
G01X1524000Y8255000D02*
Y8128000D01*
X1778000Y7874000D01*
X2032000D01*
G01Y8382000D02*
X2286000D01*
G01X3810000Y4572000D02*
X3048000D01*
X2794000Y4826000D01*
G01Y5334000D02*
Y4826000D01*
G01X3302000Y5842000D02*
X2794000D01*
G01X2286000Y8382000D02*
X2540000D01*
G01X3302000Y4826000D02*
X3810000D01*
G01X3302000Y5334000D02*
Y4826000D01*
G01Y5842000D02*
Y5588000D01*
X3810000Y5080000D01*
G01Y7874000D02*
X3302000Y8382000D01*
G01X7874000Y8636000D02*
X3556000D01*
X3302000Y8382000D01*
G01X5334000Y6604000D02*
X4699000Y5969000D01*
Y2413000D01*
X3937000Y1651000D01*
G01X7874000Y8128000D02*
X4699000D01*
X4572000Y8001000D01*
Y5842000D01*
X3810000Y5080000D01*
G01X7874000Y8382000D02*
X4445000D01*
X4318000Y8255000D01*
Y5842000D01*
X3810000Y5334000D01*
G01X4699000Y1651000D02*
X4953000D01*
G01D02*
X5207000D01*
G01X5334000Y5842000D02*
X4953000Y5461000D01*
Y2413000D01*
G01X7874000Y1778000D02*
X5969000D01*
X5080000Y2667000D01*
Y5334000D01*
X5334000Y5588000D01*
G01X8382000Y1270000D02*
X8255000Y1143000D01*
X5207000D01*
G01X6858000Y3810000D02*
X5969000D01*
X5842000Y3683000D01*
Y3429000D01*
X5715000Y3302000D01*
X5334000D01*
G01X6858000Y3556000D02*
X6096000D01*
X5969000Y3429000D01*
Y3175000D01*
X5842000Y3048000D01*
X5334000D01*
G01X6858000Y4064000D02*
X5334000D01*
G01Y4318000D02*
X6858000D01*
G01Y4572000D02*
X5334000D01*
G01X6858000Y5334000D02*
X5969000D01*
X5715000Y5080000D01*
X5334000D01*
G01Y4826000D02*
X6858000D01*
G01Y5588000D02*
X5969000D01*
X5715000Y5334000D01*
X5334000D01*
G01X6858000Y6350000D02*
X5969000D01*
X5715000Y6096000D01*
X5334000D01*
G01X6858000Y6604000D02*
X6096000D01*
X5842000Y6350000D01*
X5334000D01*
G01X6858000Y5842000D02*
X7239000Y6223000D01*
Y6731000D01*
X6985000Y6985000D01*
X6604000D01*
X6477000Y7112000D01*
X5334000D01*
G01X6858000Y6096000D02*
X7112000Y6350000D01*
Y6604000D01*
X6985000Y6731000D01*
X6604000D01*
X6477000Y6858000D01*
X5334000D01*
G01Y7874000D02*
X7874000D01*
G01X5334000Y7620000D02*
X7874000D01*
M02*
