M48
METRIC,LZ
T01C.864
T02C.914
T03C.94
T04C1.067
;LEADER: 12 
;HEADER: Board1-ili9481 
;CODE  : ASCII 
;FILE  : drill-board-1-2.drl for board #Taaaabs06268.tmp ... layers TOP and BOTTOM
;T01 Holesize 1. = 0.864000 Tolerance = +0.000000/-0.000000 PLATED MM Quantity = 49
;T02 Holesize 2. = 0.914000 Tolerance = +0.000000/-0.000000 PLATED MM Quantity = 39
;T03 Holesize 3. = 0.940000 Tolerance = +0.000000/-0.000000 PLATED MM Quantity = 8
;T04 Holesize 4. = 1.067000 Tolerance = +0.000000/-0.000000 PLATED MM Quantity = 10
%
G90
T01
X0001016Y0006858
X0001016Y0007112
X0001016Y0007366
X0001016Y000762
X000381Y0007874
X000381Y000762
X000381Y0007366
X000381Y0007112
X000381Y0006858
X000381Y0006604
X000381Y000635
X000381Y0006096
X000381Y0005842
X000381Y0005588
X000381Y0005334
X000381Y000508
X000381Y0004826
X000381Y0004572
X000381Y0004318
X000381Y0004064
X000381Y000381
X000381Y0003556
X000381Y0003302
X000381Y0003048
X0005334Y0003048
X0005334Y0003302
X0005334Y0003556
X0005334Y000381
X0005334Y0004064
X0005334Y0004318
X0005334Y0004572
X0005334Y0004826
X0005334Y000508
X0005334Y0005334
X0005334Y0005588
X0005334Y0005842
X0005334Y0006096
X0005334Y000635
X0005334Y0006604
X0005334Y0006858
X0005334Y0007112
X0005334Y0007366
X0005334Y000762
X0005334Y0007874
X0007874Y000762
X0007874Y0007874
X0007874Y0008128
X0007874Y0008382
X0007874Y0008636
T02
X0001016Y0006096
X0002286Y0009144
X0003302Y0008382
X000254Y0008382
X0002286Y0008382
X0002032Y0006096
X0002032Y0005842
X0002032Y0005588
X0002032Y0005334
X0002032Y000508
X0003302Y0004826
X0002794Y0004826
X0002032Y0004826
X0002032Y0004318
X0002032Y0004064
X0002032Y000381
X0002032Y0003556
X0002032Y0003302
X0002032Y0003048
X0003937Y0001651
X0004699Y0001651
X0004953Y0001651
X0004953Y0002413
X0006858Y0003048
X0006858Y0003302
X0006858Y0003556
X0006858Y000381
X0006858Y0004064
X0006858Y0004318
X0006858Y0004572
X0006858Y0004826
X0006858Y0005334
X0006858Y0005588
X0006858Y0005842
X0006858Y0006096
X0006858Y000635
X0006858Y0006604
X0006858Y0006858
X0006858Y0007112
T03
X0007874Y000127
X0008382Y000127
X0008382Y0001778
X0007874Y0001778
X0001524Y0008255
X0001016Y0008255
X0001016Y0008763
X0001524Y0008763
T04
X0001016Y000508
X0001016Y0005588
X0002032Y0008382
X0002032Y0007874
X0002794Y0005842
X0002794Y0005334
X0003302Y0005842
X0003302Y0005334
X0005207Y0001651
X0005207Y0001143
M30
